<?xml version="1.0" encoding="UTF-8" standalone="no"?>
<!-- Created with Inkscape (http://www.inkscape.org/) -->

<svg
   xmlns:dc="http://purl.org/dc/elements/1.1/"
   xmlns:cc="http://creativecommons.org/ns#"
   xmlns:rdf="http://www.w3.org/1999/02/22-rdf-syntax-ns#"
   xmlns:svg="http://www.w3.org/2000/svg"
   xmlns="http://www.w3.org/2000/svg"
   xmlns:xlink="http://www.w3.org/1999/xlink"
   xmlns:sodipodi="http://sodipodi.sourceforge.net/DTD/sodipodi-0.dtd"
   xmlns:inkscape="http://www.inkscape.org/namespaces/inkscape"
   width="191"
   height="191"
   id="svg3207"
   version="1.1"
   inkscape:version="0.48.1 r9760"
   sodipodi:docname="AgileFranceConference2012-logo.svg">
  <defs
     id="defs3209">
    <linearGradient
       id="linearGradient8164">
      <stop
         style="stop-color:#cd0000;stop-opacity:1;"
         offset="0"
         id="stop8166" />
      <stop
         style="stop-color:#aa0000;stop-opacity:1;"
         offset="1"
         id="stop8168" />
    </linearGradient>
    <filter
       color-interpolation-filters="sRGB"
       inkscape:collect="always"
       id="filter3635">
      <feGaussianBlur
         inkscape:collect="always"
         stdDeviation="1.2339038"
         id="feGaussianBlur3637" />
    </filter>
    <linearGradient
       id="linearGradient8178">
      <stop
         id="stop8180"
         offset="0"
         style="stop-color:#f0f0ff;stop-opacity:1;" />
      <stop
         id="stop8182"
         offset="1"
         style="stop-color:#d7d7ff;stop-opacity:1;" />
    </linearGradient>
    <filter
       color-interpolation-filters="sRGB"
       inkscape:collect="always"
       id="filter3639">
      <feGaussianBlur
         inkscape:collect="always"
         stdDeviation="1.1345707"
         id="feGaussianBlur3641" />
    </filter>
    <linearGradient
       id="linearGradient8154">
      <stop
         style="stop-color:#3465a4;stop-opacity:1;"
         offset="0"
         id="stop8156" />
      <stop
         style="stop-color:#274c7c;stop-opacity:1;"
         offset="1"
         id="stop8158" />
    </linearGradient>
    <filter
       color-interpolation-filters="sRGB"
       inkscape:collect="always"
       id="filter3651">
      <feGaussianBlur
         inkscape:collect="always"
         stdDeviation="1.139826"
         id="feGaussianBlur3653" />
    </filter>
    <linearGradient
       inkscape:collect="always"
       xlink:href="#linearGradient8154"
       id="linearGradient4166"
       gradientUnits="userSpaceOnUse"
       gradientTransform="matrix(0.37340887,-0.06954835,0.06954835,0.37340887,12.93241,-19.36621)"
       x1="285.32883"
       y1="574.29041"
       x2="310.02237"
       y2="661.03595" />
    <linearGradient
       inkscape:collect="always"
       xlink:href="#linearGradient8178"
       id="linearGradient4168"
       gradientUnits="userSpaceOnUse"
       gradientTransform="matrix(0.37695657,-0.04663804,0.04663804,0.37695657,-15.046231,-20.647509)"
       x1="530.68823"
       y1="575.30054"
       x2="556.8103"
       y2="662.04608" />
    <linearGradient
       inkscape:collect="always"
       xlink:href="#linearGradient8164"
       id="linearGradient4170"
       gradientUnits="userSpaceOnUse"
       gradientTransform="matrix(0.3645585,-0.10662256,0.10662256,0.3645585,3.1928751,-5.9741127)"
       x1="530.68823"
       y1="575.30054"
       x2="556.8103"
       y2="662.04608" />
  </defs>
  <sodipodi:namedview
     id="base"
     pagecolor="#ffffff"
     bordercolor="#666666"
     borderopacity="1.0"
     inkscape:pageopacity="0.0"
     inkscape:pageshadow="2"
     inkscape:zoom="1.4"
     inkscape:cx="146.86317"
     inkscape:cy="40.162507"
     inkscape:document-units="px"
     inkscape:current-layer="layer1"
     showgrid="false"
     inkscape:window-width="1440"
     inkscape:window-height="876"
     inkscape:window-x="0"
     inkscape:window-y="24"
     inkscape:window-maximized="1"
     fit-margin-top="0"
     fit-margin-left="0"
     fit-margin-right="0"
     fit-margin-bottom="0" />
  <metadata
     id="metadata3212">
    <rdf:RDF>
      <cc:Work
         rdf:about="">
        <dc:format>image/svg+xml</dc:format>
        <dc:type
           rdf:resource="http://purl.org/dc/dcmitype/StillImage" />
        <dc:title />
      </cc:Work>
    </rdf:RDF>
  </metadata>
  <g
     inkscape:label="Calque 1"
     inkscape:groupmode="layer"
     id="layer1"
     transform="translate(-119.99328,-90.66124)">
    <g
       id="g4151"
       transform="translate(-3.9929314,-2.0938401)"
       inkscape:export-filename="/media/DATA/agile-france-2012/logo-agile-france-2012.png"
       inkscape:export-xdpi="90"
       inkscape:export-ydpi="90">
      <text
         transform="matrix(0.96592583,-0.25881905,0.25881905,0.96592583,0,0)"
         sodipodi:linespacing="125%"
         id="text4131"
         y="199.35826"
         x="93.437439"
         style="font-size:57.9932518px;font-style:normal;font-variant:normal;font-weight:normal;font-stretch:normal;text-align:start;line-height:125%;writing-mode:lr-tb;text-anchor:start;fill:#000000;fill-opacity:1;stroke:none;font-family:DejaVu Sans;-inkscape-font-specification:DejaVu Sans"
         xml:space="preserve"><tspan
           style="font-size:57.9932518px;font-style:normal;font-variant:normal;font-weight:normal;font-stretch:normal;text-align:start;line-height:125%;writing-mode:lr-tb;text-anchor:start;font-family:DejaVu Sans;-inkscape-font-specification:DejaVu Sans"
           y="199.35826"
           x="93.437439"
           id="tspan4133"
           sodipodi:role="line">agile</tspan></text>
      <text
         transform="matrix(0.96592583,-0.25881905,0.25881905,0.96592583,0,0)"
         id="text4135"
         y="283.42676"
         x="89.974922"
         style="font-size:26.60866737px;font-style:normal;font-variant:normal;font-weight:normal;font-stretch:normal;text-align:start;line-height:125%;writing-mode:lr-tb;text-anchor:start;fill:#000000;fill-opacity:1;stroke:none;font-family:DejaVu Sans;-inkscape-font-specification:DejaVu Sans"
         xml:space="preserve"
         sodipodi:linespacing="125%"><tspan
           style="font-size:26.60866737px;font-style:normal;font-variant:normal;font-weight:normal;font-stretch:normal;text-align:start;line-height:125%;writing-mode:lr-tb;text-anchor:start;font-family:DejaVu Sans;-inkscape-font-specification:DejaVu Sans"
           y="283.42676"
           x="89.974922"
           id="tspan4137"
           sodipodi:role="line">conférence</tspan></text>
      <path
         transform="matrix(0.87146056,-0.23350715,0.23350715,0.87146056,44.672194,73.186528)"
         sodipodi:nodetypes="ccscscsc"
         style="fill:#7c7c7c;fill-opacity:1;stroke:#7c7c7c;stroke-width:2.97424245;stroke-linecap:round;stroke-linejoin:round;stroke-miterlimit:4;stroke-opacity:1;stroke-dasharray:none;filter:url(#filter3651)"
         id="path4139"
         d="m 71.552417,144.09886 45.636923,0.85717 c 0,0 -0.68549,7.01997 0.0396,16.39026 0.42607,5.50612 2.53032,16.37198 2.53032,16.37198 0,0 -11.93411,1.85461 -19.5399,2.33532 -9.310093,0.5884 -27.989503,-0.2616 -27.989503,-0.2616 0,0 -1.34427,-7.22854 -1.48121,-12.74718 -0.2874,-11.58367 0.45467,-22.96479 0.80378,-22.94595 z"
         inkscape:connector-curvature="0" />
      <path
         sodipodi:nodetypes="ccscscsc"
         style="fill:url(#linearGradient4166);fill-opacity:1;stroke:#000000;stroke-width:2.65881395;stroke-linecap:round;stroke-linejoin:round;stroke-miterlimit:4;stroke-opacity:1;stroke-dasharray:none"
         id="path4141"
         d="m 139.93607,180.3076 40.21858,-8.93505 c 0,0 0.83721,6.19139 3.39365,14.10808 1.50224,4.65198 5.57538,13.56438 5.57538,13.56438 0,0 -10.09115,4.12689 -16.66627,6.1531 -8.04826,2.48013 -24.61212,5.70735 -24.61212,5.70735 0,0 -2.66101,-5.94076 -3.91206,-10.66478 -2.62607,-9.91577 -4.30737,-19.87531 -3.99716,-19.93308 z"
         inkscape:connector-curvature="0" />
      <path
         transform="matrix(0.87146056,-0.23350715,0.23350715,0.87146056,44.672194,73.186528)"
         d="m 133.8218,154.53176 44.69293,3.16702 c 0,0 -1.03707,6.97623 -0.81358,16.37117 0.13133,5.52061 1.62901,16.47904 1.62901,16.47904 0,0 -11.79534,1.24791 -19.27625,1.34287 -9.15718,0.1162 -27.42425,-1.67859 -27.42425,-1.67859 0,0 -0.94187,-7.28731 -0.7891,-12.80577 0.32068,-11.58332 1.63999,-22.91222 1.98124,-22.87574 z"
         id="path4143"
         style="fill:#7c7c7c;fill-opacity:1;stroke:#7c7c7c;stroke-width:2.94684792;stroke-linecap:round;stroke-linejoin:round;stroke-miterlimit:4;stroke-opacity:1;stroke-dasharray:none;filter:url(#filter3639)"
         sodipodi:nodetypes="ccscscsc"
         inkscape:connector-curvature="0" />
      <path
         sodipodi:nodetypes="ccscscsc"
         style="fill:url(#linearGradient4168);fill-opacity:1;stroke:#000000;stroke-width:2.65881395;stroke-linecap:round;stroke-linejoin:round;stroke-miterlimit:4;stroke-opacity:1;stroke-dasharray:none"
         id="path4145"
         d="m 196.11474,174.84062 40.68883,-6.46477 c 0,0 0.45786,6.23093 2.52665,14.28883 1.21552,4.73497 4.7374,13.87928 4.7374,13.87928 0,0 -10.32411,3.50356 -17.01055,5.12482 -8.18459,1.98455 -24.91464,4.19526 -24.91464,4.19526 0,0 -2.29356,-6.09206 -3.25401,-10.88364 -2.01632,-10.05748 -3.08676,-20.10106 -2.77368,-20.13978 z"
         inkscape:connector-curvature="0" />
      <path
         d="m 370.67289,257.61591 45.19883,-4.10756 c 0,0 0.0846,7.0127 1.81859,16.19519 1.0189,5.39579 4.27834,15.90673 4.27834,15.90673 0,0 -11.59384,3.12871 -19.05893,4.42957 -9.13783,1.59234 -27.69213,2.78023 -27.69213,2.78023 0,0 -2.11343,-6.99846 -2.84791,-12.438 -1.54168,-11.41764 -2.04389,-22.74688 -1.69679,-22.76616 z"
         id="path4147"
         style="fill:#7c7c7c;fill-opacity:1;stroke:#7c7c7c;stroke-width:4;stroke-linecap:round;stroke-linejoin:round;stroke-miterlimit:4;stroke-opacity:1;stroke-dasharray:none;filter:url(#filter3635)"
         sodipodi:nodetypes="ccscscsc"
         transform="matrix(0.8433833,-0.20294266,0.20423952,0.84877273,-121.01999,11.522269)"
         inkscape:connector-curvature="0" />
      <path
         d="m 243.03044,153.03066 39.12059,-12.92088 c 0,0 1.45358,6.07628 4.79061,13.69686 1.96093,4.47799 6.90668,12.93734 6.90668,12.93734 0,0 -9.62676,5.11752 -15.96567,7.79247 -7.75915,3.27429 -23.91626,8.14537 -23.91626,8.14537 0,0 -3.24293,-5.64419 -4.96117,-10.21903 -3.60663,-9.60268 -6.27768,-19.34353 -5.97478,-19.43213 z"
         id="path4149"
         style="fill:url(#linearGradient4170);fill-opacity:1;stroke:#000000;stroke-width:2.65881395;stroke-linecap:round;stroke-linejoin:round;stroke-miterlimit:4;stroke-opacity:1;stroke-dasharray:none"
         sodipodi:nodetypes="ccscscsc"
         inkscape:connector-curvature="0" />
      <text
         sodipodi:linespacing="125%"
         id="text3373"
         y="267.49594"
         x="219.85117"
         style="font-size:24.74556351px;font-style:normal;font-variant:normal;font-weight:bold;font-stretch:normal;text-align:start;line-height:125%;letter-spacing:0px;word-spacing:0px;writing-mode:lr-tb;text-anchor:start;fill:#c50000;fill-opacity:1;stroke:none;font-family:Sans;-inkscape-font-specification:Sans Bold"
         xml:space="preserve"><tspan
           style="font-size:24.74556351px;font-style:normal;font-variant:normal;font-weight:bold;font-stretch:normal;text-align:start;line-height:125%;writing-mode:lr-tb;text-anchor:start;fill:#c50000;fill-opacity:1;font-family:Sans;-inkscape-font-specification:Sans Bold"
           y="267.49594"
           x="219.85117"
           id="tspan3375"
           sodipodi:role="line">2012</tspan></text>
      <rect
         ry="10.606601"
         rx="10.606601"
         y="242.37949"
         x="214.18129"
         height="32.217468"
         width="79.982109"
         id="rect4147"
         style="fill:none;stroke:#c50000;stroke-width:3.5;stroke-miterlimit:4;stroke-opacity:1;stroke-dasharray:none" />
    </g>
    <rect
       style="fill:none;stroke:none"
       id="rect4149"
       width="191"
       height="191"
       x="119.99328"
       y="90.66124"
       rx="0"
       ry="0"
       inkscape:export-filename="/media/DATA/agile-france-2012/logo-agile-france-2012.png"
       inkscape:export-xdpi="90"
       inkscape:export-ydpi="90" />
  </g>
</svg>
